<?xml version="1.0" encoding="UTF-8" standalone="no"?>
<!-- Created with Inkscape (http://www.inkscape.org/) -->

<svg
   xmlns:dc="http://purl.org/dc/elements/1.1/"
   xmlns:cc="http://creativecommons.org/ns#"
   xmlns:rdf="http://www.w3.org/1999/02/22-rdf-syntax-ns#"
   xmlns:svg="http://www.w3.org/2000/svg"
   xmlns="http://www.w3.org/2000/svg"
   xmlns:sodipodi="http://sodipodi.sourceforge.net/DTD/sodipodi-0.dtd"
   xmlns:inkscape="http://www.inkscape.org/namespaces/inkscape"
   width="61.457329mm"
   height="78.805893mm"
   viewBox="0 0 61.457331 78.805893"
   version="1.1"
   id="svg5098"
   inkscape:version="0.92.4 (5da689c313, 2019-01-14)"
   sodipodi:docname="menu-3.svg">
  <defs
     id="defs5092" />
  <sodipodi:namedview
     id="base"
     pagecolor="#ffffff"
     bordercolor="#666666"
     borderopacity="1.0"
     inkscape:pageopacity="0.0"
     inkscape:pageshadow="2"
     inkscape:zoom="0.70000002"
     inkscape:cx="201.97462"
     inkscape:cy="18.824349"
     inkscape:document-units="mm"
     inkscape:current-layer="layer1"
     showgrid="false"
     fit-margin-top="0"
     fit-margin-left="0"
     fit-margin-right="0"
     fit-margin-bottom="0"
     inkscape:window-width="1366"
     inkscape:window-height="715"
     inkscape:window-x="-8"
     inkscape:window-y="-8"
     inkscape:window-maximized="1" />
  <metadata
     id="metadata5095">
    <rdf:RDF>
      <cc:Work
         rdf:about="">
        <dc:format>image/svg+xml</dc:format>
        <dc:type
           rdf:resource="http://purl.org/dc/dcmitype/StillImage" />
        <dc:title></dc:title>
      </cc:Work>
    </rdf:RDF>
  </metadata>
  <g
     inkscape:label="Camada 1"
     inkscape:groupmode="layer"
     id="layer1"
     transform="translate(-101.74617,348.34917)">
    <rect
       y="-342.56299"
       x="107.86432"
       height="25.775417"
       width="49.593666"
       id="rect4687-6"
       style="fill:none;stroke:#000000;stroke-width:2.33300662;stroke-linejoin:round;stroke-miterlimit:4;stroke-dasharray:none;stroke-opacity:1" />
    <path
       inkscape:connector-curvature="0"
       id="path3784-7"
       d="m 117.9014,-338.52012 c -4.14393,0 -7.51536,3.37142 -7.51536,7.51536 0,4.14393 3.37143,7.51536 7.51536,7.51536 4.14394,0 7.51536,-3.37143 7.51536,-7.51536 0,-4.14394 -3.37142,-7.51536 -7.51536,-7.51536 z m 0,12.5885 c -2.7973,0 -5.07283,-2.27568 -5.07283,-5.07283 0,-2.79716 2.27584,-5.07283 5.07283,-5.07283 2.79716,0 5.07283,2.27583 5.07283,5.07283 0,2.797 -2.27552,5.07283 -5.07283,5.07283 z"
       style="stroke-width:0.15391806" />
    <path
       inkscape:connector-curvature="0"
       id="path3794-0"
       d="m 161.9539,-348.18054 h -59.01496 c -0.67461,0 -1.22118,0.54672 -1.22118,1.22119 v 76.36352 c 0,0.67447 0.54657,1.22118 1.22118,1.22118 h 59.01496 c 0.67463,0 1.22119,-0.54671 1.22119,-1.22118 v -76.36352 c 0,-0.67447 -0.54672,-1.22119 -1.22119,-1.22119 z m -1.22119,76.36352 h -56.57258 v -73.92099 h 56.57243 v 73.92099 z"
       style="stroke-width:0.15391806" />
    <path
       inkscape:connector-curvature="0"
       id="path3786-66"
       d="m 153.60662,-335.89128 c -0.18239,-0.01 -3.56551,-0.1707 -6.65542,1.33416 -1.38017,-1.32477 -3.20703,-2.0702 -5.15209,-2.0702 -1.59552,0 -3.07436,0.50531 -4.28831,1.36156 -3.39544,-3.26937 -8.83783,-3.01187 -9.07086,-2.99925 -0.62136,0.0342 -1.1179,0.53056 -1.15208,1.15224 -0.0131,0.23518 -0.27905,5.79947 3.10715,9.18583 1.26675,1.26689 2.96662,2.16285 5.05682,2.67001 1.31539,2.12653 3.66833,3.5472 6.34743,3.5472 1.26336,0 2.50179,-0.32385 3.60153,-0.93167 1.92259,-0.30907 4.40837,-1.06942 6.25092,-2.91151 l 1.5e-4,-1.6e-4 c 3.3862,-3.38619 3.12007,-8.95049 3.10699,-9.18567 -0.0343,-0.62214 -0.53086,-1.11822 -1.15223,-1.15254 z m -19.26638,6.72252 c 0,0.34309 0.0252,0.68017 0.0703,1.01109 -0.91058,-0.38541 -1.6771,-0.88503 -2.28845,-1.49639 -1.79777,-1.79792 -2.25644,-4.57937 -2.36696,-6.14641 1.52779,0.10513 4.2052,0.54595 6.01297,2.25059 -0.89689,1.23088 -1.4279,2.74482 -1.4279,4.38112 z m 6.9651,4.99172 c -2.53519,-0.24904 -4.52258,-2.39235 -4.52258,-4.99172 0,-2.7659 2.25013,-5.01603 5.01635,-5.01603 1.11298,0 2.1684,0.36386 3.03111,1.0214 -0.13915,0.12175 -0.27614,0.24704 -0.40896,0.37987 -2.79177,2.79161 -3.10068,7.06084 -3.11592,8.60648 z m 8.6191,-3.1036 c -1.79807,1.79761 -4.57922,2.25628 -6.14625,2.36695 0.10758,-1.56412 0.56272,-4.33556 2.37002,-6.14272 1.79838,-1.79807 4.57938,-2.25659 6.14626,-2.36741 -0.10759,1.56427 -0.56288,4.33603 -2.37003,6.14318 z"
       style="stroke-width:0.15391806" />
    <rect
       id="rect3788"
       height="1.4706511"
       width="2.2790802"
       y="-299.82736"
       x="125.44133"
       style="stroke-width:0.07899036" />
    <rect
       id="rect3790"
       height="1.4706511"
       width="2.2790802"
       y="-302.78052"
       x="125.44133"
       style="stroke-width:0.07899036" />
    <rect
       id="rect3796"
       height="1.4706511"
       width="2.2790802"
       y="-296.87405"
       x="125.44133"
       style="stroke-width:0.07899036" />
    <rect
       id="rect3798"
       height="1.4706511"
       width="2.2790802"
       y="-293.92075"
       x="125.44133"
       style="stroke-width:0.07899036" />
    <rect
       id="rect3800"
       height="1.4706511"
       width="13.675489"
       y="-299.82736"
       x="110.24625"
       style="stroke-width:0.07899036" />
    <rect
       id="rect3802"
       height="1.4706511"
       width="13.675489"
       y="-296.87405"
       x="110.24625"
       style="stroke-width:0.07899036" />
    <rect
       id="rect3804"
       height="1.4706511"
       width="13.675489"
       y="-302.78052"
       x="110.24625"
       style="stroke-width:0.07899036" />
    <rect
       id="rect3806"
       height="1.4706511"
       width="13.675489"
       y="-293.92075"
       x="110.24625"
       style="stroke-width:0.07899036" />
    <rect
       style="fill:none;stroke:#000000;stroke-width:1.30586529;stroke-linejoin:round;stroke-miterlimit:4;stroke-dasharray:none;stroke-opacity:1"
       id="rect875"
       width="22.735786"
       height="30.406824"
       x="107.56171"
       y="-308.73792" />
    <rect
       id="rect3804-4"
       height="1.4706511"
       width="13.675489"
       y="-307.15387"
       x="110.37952"
       style="stroke-width:0.07899036" />
    <rect
       id="rect3788-1"
       height="1.4706511"
       width="2.2790802"
       y="-288.04742"
       x="125.44162"
       style="stroke-width:0.07899036" />
    <rect
       id="rect3790-9"
       height="1.4706511"
       width="2.2790802"
       y="-291.00058"
       x="125.44162"
       style="stroke-width:0.07899036" />
    <rect
       id="rect3796-6"
       height="1.4706511"
       width="2.2790802"
       y="-285.09415"
       x="125.44162"
       style="stroke-width:0.07899036" />
    <rect
       id="rect3798-3"
       height="1.4706511"
       width="2.2790802"
       y="-282.14081"
       x="125.44162"
       style="stroke-width:0.07899036" />
    <rect
       id="rect3800-2"
       height="1.4706511"
       width="13.675489"
       y="-288.04742"
       x="110.24649"
       style="stroke-width:0.07899036" />
    <rect
       id="rect3802-1"
       height="1.4706511"
       width="13.675489"
       y="-285.09415"
       x="110.24649"
       style="stroke-width:0.07899036" />
    <rect
       id="rect3804-2"
       height="1.4706511"
       width="13.675489"
       y="-291.00058"
       x="110.24649"
       style="stroke-width:0.07899036" />
    <rect
       id="rect3806-2"
       height="1.4706511"
       width="13.675489"
       y="-282.14081"
       x="110.24649"
       style="stroke-width:0.07899036" />
    <rect
       id="rect3788-2"
       height="1.4706511"
       width="2.2790802"
       y="-299.7785"
       x="153.0144"
       style="stroke-width:0.07899036" />
    <rect
       id="rect3790-0"
       height="1.4706511"
       width="2.2790802"
       y="-302.73169"
       x="153.0144"
       style="stroke-width:0.07899036" />
    <rect
       id="rect3796-0"
       height="1.4706511"
       width="2.2790802"
       y="-296.82526"
       x="153.0144"
       style="stroke-width:0.07899036" />
    <rect
       id="rect3798-4"
       height="1.4706511"
       width="2.2790802"
       y="-293.87192"
       x="153.0144"
       style="stroke-width:0.07899036" />
    <rect
       id="rect3800-4"
       height="1.4706511"
       width="13.675489"
       y="-299.7785"
       x="137.81946"
       style="stroke-width:0.07899036" />
    <rect
       id="rect3802-3"
       height="1.4706511"
       width="13.675489"
       y="-296.82526"
       x="137.81946"
       style="stroke-width:0.07899036" />
    <rect
       id="rect3804-6"
       height="1.4706511"
       width="13.675489"
       y="-302.73169"
       x="137.81946"
       style="stroke-width:0.07899036" />
    <rect
       id="rect3806-1"
       height="1.4706511"
       width="13.675489"
       y="-293.87192"
       x="137.81946"
       style="stroke-width:0.07899036" />
    <rect
       style="fill:none;stroke:#000000;stroke-width:1.30586529;stroke-linejoin:round;stroke-miterlimit:4;stroke-dasharray:none;stroke-opacity:1"
       id="rect875-6"
       width="22.735786"
       height="30.406824"
       x="135.13498"
       y="-308.68909" />
    <rect
       id="rect3804-4-6"
       height="1.4706511"
       width="13.675489"
       y="-307.10504"
       x="137.95277"
       style="stroke-width:0.07899036" />
    <rect
       id="rect3788-1-5"
       height="1.4706511"
       width="2.2790802"
       y="-287.9986"
       x="153.01466"
       style="stroke-width:0.07899036" />
    <rect
       id="rect3790-9-2"
       height="1.4706511"
       width="2.2790802"
       y="-290.95175"
       x="153.01466"
       style="stroke-width:0.07899036" />
    <rect
       id="rect3796-6-8"
       height="1.4706511"
       width="2.2790802"
       y="-285.04535"
       x="153.01466"
       style="stroke-width:0.07899036" />
    <rect
       id="rect3798-3-4"
       height="1.4706511"
       width="2.2790802"
       y="-282.09201"
       x="153.01466"
       style="stroke-width:0.07899036" />
    <rect
       id="rect3800-2-8"
       height="1.4706511"
       width="13.675489"
       y="-287.9986"
       x="137.81976"
       style="stroke-width:0.07899036" />
    <rect
       id="rect3802-1-5"
       height="1.4706511"
       width="13.675489"
       y="-285.04535"
       x="137.81976"
       style="stroke-width:0.07899036" />
    <rect
       id="rect3804-2-9"
       height="1.4706511"
       width="13.675489"
       y="-290.95175"
       x="137.81976"
       style="stroke-width:0.07899036" />
    <rect
       id="rect3806-2-1"
       height="1.4706511"
       width="13.675489"
       y="-282.09201"
       x="137.81976"
       style="stroke-width:0.07899036" />
  </g>
</svg>
