<?xml version="1.0" encoding="iso-8859-1"?>
<!-- Generator: Adobe Illustrator 19.0.0, SVG Export Plug-In . SVG Version: 6.00 Build 0)  -->
<svg version="1.1" id="Capa_1" xmlns="http://www.w3.org/2000/svg" xmlns:xlink="http://www.w3.org/1999/xlink" x="0px" y="0px"
	 viewBox="0 0 511.566 511.566" style="enable-background:new 0 0 511.566 511.566;" xml:space="preserve">
<g>
	<g>
		<path d="M379.678,71.939c-22.785,0-39.967,8.59-39.967,19.983s17.182,19.983,39.967,19.983c22.785,0,39.966-8.59,39.967-19.983
			C419.645,80.529,402.463,71.939,379.678,71.939z M379.678,103.912c-19.514,0-31.973-7.1-31.973-11.99
			c0-5.008,12.162-11.99,31.973-11.99c19.812,0,31.972,6.983,31.973,11.99C411.651,96.812,399.194,103.912,379.678,103.912z"/>
	</g>
</g>
<g>
	<g>
		<path d="M391.668,87.925h-23.98c-2.209,0-3.996,1.788-3.996,3.997c0,2.209,1.787,3.997,3.996,3.997h23.98
			c2.209,0,3.996-1.788,3.996-3.997C395.664,89.712,393.877,87.925,391.668,87.925z"/>
	</g>
</g>
<g>
	<g>
		<path d="M343.796,151.879c-1.289-0.008-2.482,0.577-3.24,1.545c-0.625-0.145-1.631-0.465-3.139-1.175
			c-3.145-1.475-7.704-3.185-11.061-1.042c-1.936,1.229-2.631,3.212-2.631,4.66c0,2.209,1.789,3.997,3.998,3.997
			c1.287,0,2.428-0.609,3.16-1.553c0.625,0.149,1.633,0.468,3.131,1.175c2.076,0.972,4.769,2.049,7.33,2.049
			c1.31,0,2.591-0.281,3.731-1.007c1.936-1.233,2.631-3.216,2.631-4.66C347.706,153.694,345.974,151.93,343.796,151.879z"/>
	</g>
</g>
<g>
	<g>
		<path d="M433,151.207c-3.366-2.143-7.916-0.429-11.061,1.042c-1.5,0.707-2.506,1.026-3.131,1.171
			c-0.734-0.94-1.873-1.549-3.16-1.549c-2.209,0-3.998,1.788-3.998,3.997c0,1.444,0.695,3.427,2.631,4.66
			c1.14,0.726,2.42,1.007,3.732,1.007c2.559,0,5.252-1.077,7.329-2.049c1.5-0.707,2.506-1.027,3.131-1.175
			c0.734,0.944,1.873,1.553,3.162,1.553c2.209,0,3.996-1.788,3.996-3.997C435.631,154.419,434.936,152.436,433,151.207z"/>
	</g>
</g>
<g>
	<g>
		<path d="M399.66,151.871h-39.965c-2.209,0-3.996,1.788-3.996,3.997c0,2.209,1.787,3.997,3.996,3.997h39.965
			c2.211,0,3.998-1.788,3.998-3.997C403.658,153.659,401.871,151.871,399.66,151.871z"/>
	</g>
</g>
<g>
	<g>
		<path d="M343.796,351.71c-1.289,0.102-2.482,0.578-3.24,1.546c-0.625-0.149-1.631-0.461-3.139-1.179
			c-3.145-1.468-7.704-3.192-11.061-1.038c-1.936,1.225-2.631,3.208-2.631,4.66c0,2.209,1.789,3.996,3.998,3.996
			c1.287,0,2.428-0.609,3.16-1.553c0.625,0.149,1.633,0.468,3.131,1.178c2.076,0.969,4.769,2.046,7.33,2.046
			c1.31,0,2.591-0.281,3.731-1.007c1.936-1.233,2.631-3.217,2.631-4.66C347.706,353.529,345.974,351.765,343.796,351.71z"/>
	</g>
</g>
<g>
	<g>
		<path d="M433,351.039c-3.366-2.147-7.916-0.43-11.061,1.038c-1.5,0.71-2.506,1.03-3.131,1.171
			c-0.734-0.937-1.873-1.546-3.16-1.546c-2.209,0-3.998,1.788-3.998,3.997c0,1.443,0.695,3.427,2.631,4.66
			c1.14,0.726,2.42,1.007,3.732,1.007c2.559,0,5.252-1.077,7.329-2.046c1.5-0.71,2.506-1.03,3.131-1.178
			c0.734,0.945,1.873,1.553,3.162,1.553c2.209,0,3.996-1.787,3.996-3.996C435.631,354.247,434.936,352.265,433,351.039z"/>
	</g>
</g>
<g>
	<g>
		<path d="M399.66,351.702h-39.965c-2.209,0-3.996,1.788-3.996,3.997c0,2.209,1.787,3.996,3.996,3.996h39.965
			c2.211,0,3.998-1.787,3.998-3.996C403.658,353.49,401.871,351.702,399.66,351.702z"/>
	</g>
</g>
<g>
	<g>
		<path d="M319.728,183.845h-15.986c-2.209,0-3.996,1.787-3.996,3.996s1.787,3.997,3.996,3.997h15.986
			c2.209,0,3.996-1.788,3.996-3.997S321.937,183.845,319.728,183.845z"/>
	</g>
</g>
<g>
	<g>
		<path d="M455.613,183.845h-15.986c-2.209,0-3.996,1.787-3.996,3.996s1.787,3.997,3.996,3.997h15.986
			c2.209,0,3.996-1.788,3.996-3.997S457.822,183.845,455.613,183.845z"/>
	</g>
</g>
<g>
	<g>
		<path d="M351.701,207.823h-47.959c-2.209,0-3.996,1.788-3.996,3.997s1.787,3.997,3.996,3.997h47.959
			c2.209,0,3.998-1.788,3.998-3.997S353.91,207.823,351.701,207.823z"/>
	</g>
</g>
<g>
	<g>
		<path d="M455.613,207.823h-15.986c-2.209,0-3.996,1.788-3.996,3.997s1.787,3.997,3.996,3.997h15.986
			c2.209,0,3.996-1.788,3.996-3.997S457.822,207.823,455.613,207.823z"/>
	</g>
</g>
<g>
	<g>
		<path d="M375.681,231.804h-71.939c-2.209,0-3.996,1.788-3.996,3.997s1.787,3.996,3.996,3.996h71.939
			c2.209,0,3.997-1.787,3.996-3.996C379.677,233.592,377.89,231.804,375.681,231.804z"/>
	</g>
</g>
<g>
	<g>
		<path d="M455.613,231.804h-15.986c-2.209,0-3.996,1.788-3.996,3.997s1.787,3.996,3.996,3.996h15.986
			c2.209,0,3.996-1.787,3.996-3.996S457.822,231.804,455.613,231.804z"/>
	</g>
</g>
<g>
	<g>
		<path d="M335.715,255.783h-31.973c-2.209,0-3.996,1.788-3.996,3.997c0,2.209,1.787,3.997,3.996,3.997h31.973
			c2.209,0,3.996-1.788,3.996-3.997C339.711,257.571,337.924,255.783,335.715,255.783z"/>
	</g>
</g>
<g>
	<g>
		<path d="M455.613,255.783h-15.986c-2.209,0-3.996,1.788-3.996,3.997c0,2.209,1.787,3.997,3.996,3.997h15.986
			c2.209,0,3.996-1.788,3.996-3.997S457.822,255.783,455.613,255.783z"/>
	</g>
</g>
<g>
	<g>
		<path d="M359.695,279.764h-55.953c-2.209,0-3.996,1.787-3.996,3.996c0,2.209,1.787,3.996,3.996,3.996h55.953
			c2.209,0,3.996-1.787,3.996-3.996C363.691,281.551,361.904,279.764,359.695,279.764z"/>
	</g>
</g>
<g>
	<g>
		<path d="M455.613,279.764h-15.986c-2.209,0-3.996,1.787-3.996,3.996c0,2.209,1.787,3.996,3.996,3.996h15.986
			c2.209,0,3.996-1.787,3.996-3.996C459.609,281.551,457.822,279.764,455.613,279.764z"/>
	</g>
</g>
<g>
	<g>
		<path d="M359.695,383.676h-55.953c-2.209,0-3.996,1.787-3.996,3.996c0,2.209,1.787,3.996,3.996,3.996h55.953
			c2.209,0,3.996-1.787,3.996-3.996C363.691,385.463,361.904,383.676,359.695,383.676z"/>
	</g>
</g>
<g>
	<g>
		<path d="M455.613,383.676h-15.986c-2.209,0-3.996,1.787-3.996,3.996c0,2.209,1.787,3.996,3.996,3.996h15.986
			c2.209,0,3.996-1.787,3.996-3.996C459.609,385.463,457.822,383.676,455.613,383.676z"/>
	</g>
</g>
<g>
	<g>
		<path d="M335.715,407.655h-31.973c-2.209,0-3.996,1.787-3.996,3.996c0,2.209,1.787,3.997,3.996,3.997h31.973
			c2.209,0,3.996-1.788,3.996-3.997C339.711,409.442,337.924,407.655,335.715,407.655z"/>
	</g>
</g>
<g>
	<g>
		<path d="M455.613,407.655h-15.986c-2.209,0-3.996,1.787-3.996,3.996c0,2.209,1.787,3.997,3.996,3.997h15.986
			c2.209,0,3.996-1.788,3.996-3.997C459.609,409.442,457.822,407.655,455.613,407.655z"/>
	</g>
</g>
<g>
	<g>
		<path d="M367.687,431.635h-63.945c-2.209,0-3.996,1.787-3.996,3.996c0,2.209,1.787,3.997,3.996,3.997h63.945
			c2.209,0,3.998-1.788,3.998-3.997C371.685,433.422,369.896,431.635,367.687,431.635z"/>
	</g>
</g>
<g>
	<g>
		<path d="M455.613,431.635h-15.986c-2.209,0-3.996,1.787-3.996,3.996c0,2.209,1.787,3.997,3.996,3.997h15.986
			c2.209,0,3.996-1.788,3.996-3.997C459.609,433.422,457.822,431.635,455.613,431.635z"/>
	</g>
</g>
<g>
	<g>
		<path d="M375.681,303.743h-71.939c-2.209,0-3.996,1.787-3.996,3.996c0,2.209,1.787,3.997,3.996,3.997h71.939
			c2.209,0,3.996-1.788,3.996-3.997C379.677,305.53,377.89,303.743,375.681,303.743z"/>
	</g>
</g>
<g>
	<g>
		<path d="M455.613,303.743h-15.986c-2.209,0-3.996,1.787-3.996,3.996c0,2.209,1.787,3.997,3.996,3.997h15.986
			c2.209,0,3.996-1.788,3.996-3.997C459.609,305.53,457.822,303.743,455.613,303.743z"/>
	</g>
</g>
<g>
	<g>
		<path d="M7.992,0C5.783,0,3.996,1.788,3.996,3.997V507.57c0,2.209,1.787,3.996,3.996,3.996c2.209,0,3.998-1.787,3.997-3.996V3.997
			C11.989,1.788,10.201,0,7.992,0z"/>
	</g>
</g>
<g>
	<g>
		<path d="M503.572,0H7.992C5.783,0,3.996,1.788,3.996,3.997s1.787,3.996,3.996,3.996h495.58c2.209,0,3.998-1.787,3.998-3.996
			S505.781,0,503.572,0z"/>
	</g>
</g>
<g>
	<g>
		<path d="M503.572,0c-2.209,0-3.996,1.788-3.996,3.997V507.57c0,2.209,1.787,3.996,3.996,3.996s3.998-1.787,3.998-3.996V3.997
			C507.57,1.788,505.781,0,503.572,0z"/>
	</g>
</g>
<g>
	<g>
		<path d="M503.572,503.574H7.992c-2.209,0-3.996,1.787-3.996,3.996c0,2.209,1.787,3.996,3.996,3.996h495.58
			c2.209,0,3.998-1.787,3.998-3.996C507.57,505.361,505.781,503.574,503.572,503.574z"/>
	</g>
</g>
<g>
	<g>
		<path d="M255.783,0c-2.209,0-3.996,1.788-3.996,3.997V507.57c0,2.209,1.787,3.996,3.996,3.996c2.209,0,3.996-1.787,3.997-3.996
			V3.997C259.78,1.788,257.992,0,255.783,0z"/>
	</g>
</g>
<g>
	<g>
		<path d="M223.81,15.986H39.966c-2.209,0-3.997,1.788-3.997,3.997s1.788,3.996,3.997,3.996H223.81c2.209,0,3.997-1.787,3.997-3.996
			S226.019,15.986,223.81,15.986z"/>
	</g>
</g>
<g>
	<g>
		<path d="M239.797,31.973c-6.612,0-11.99-5.379-11.99-11.99c0-2.209-1.788-3.997-3.997-3.997c-2.209,0-3.997,1.788-3.997,3.997
			c0,11.018,8.962,19.983,19.983,19.983c2.209,0,3.998-1.787,3.998-3.996C243.794,33.761,242.006,31.973,239.797,31.973z"/>
	</g>
</g>
<g>
	<g>
		<path d="M39.966,15.985c-2.209,0-3.997,1.788-3.997,3.997c0,6.612-5.378,11.99-11.99,11.99c-2.209,0-3.996,1.788-3.996,3.997
			c0,2.209,1.787,3.997,3.996,3.997c11.022,0,19.983-8.965,19.984-19.984C43.963,17.773,42.175,15.985,39.966,15.985z"/>
	</g>
</g>
<g>
	<g>
		<path d="M223.81,487.587H39.966c-2.209,0-3.997,1.788-3.997,3.997c0,2.209,1.788,3.996,3.997,3.996H223.81
			c2.209,0,3.997-1.787,3.997-3.996C227.807,489.375,226.019,487.587,223.81,487.587z"/>
	</g>
</g>
<g>
	<g>
		<path d="M23.979,471.601c-2.209,0-3.996,1.788-3.996,3.997c0,2.209,1.787,3.996,3.996,3.996c6.612,0,11.99,5.379,11.99,11.99
			c0,2.209,1.788,3.996,3.997,3.996c2.209,0,3.996-1.787,3.996-3.996C43.962,480.563,35.001,471.601,23.979,471.601z"/>
	</g>
</g>
<g>
	<g>
		<path d="M239.796,471.601c-11.022,0-19.983,8.962-19.983,19.983c0,2.209,1.788,3.996,3.997,3.996c2.209,0,3.996-1.787,3.996-3.996
			c0-6.611,5.379-11.99,11.99-11.99c2.209,0,3.997-1.787,3.997-3.996C243.793,473.389,242.005,471.601,239.796,471.601z"/>
	</g>
</g>
<g>
	<g>
		<path d="M23.979,31.973c-2.209,0-3.996,1.788-3.996,3.997v439.628c0,2.209,1.787,3.996,3.996,3.996
			c2.209,0,3.997-1.788,3.997-3.996V35.97C27.976,33.761,26.188,31.973,23.979,31.973z"/>
	</g>
</g>
<g>
	<g>
		<path d="M239.796,31.973c-2.209,0-3.996,1.788-3.996,3.997v439.628c0,2.209,1.787,3.996,3.996,3.996s3.997-1.788,3.997-3.996
			V35.97C243.793,33.761,242.005,31.973,239.796,31.973z"/>
	</g>
</g>
<g>
	<g>
		<path d="M471.6,15.986H287.756c-2.209,0-3.996,1.788-3.996,3.997s1.787,3.996,3.996,3.996h183.843
			c2.209,0,3.999-1.787,3.999-3.996S473.809,15.986,471.6,15.986z"/>
	</g>
</g>
<g>
	<g>
		<path d="M487.586,31.973c-6.611,0-11.988-5.379-11.988-11.99c0-2.209-1.789-3.997-3.998-3.997c-2.209,0-3.996,1.788-3.996,3.997
			c0,11.018,8.961,19.983,19.982,19.983c2.209,0,3.998-1.787,3.998-3.996C491.584,33.761,489.795,31.973,487.586,31.973z"/>
	</g>
</g>
<g>
	<g>
		<path d="M287.755,15.985c-2.209,0-3.996,1.788-3.996,3.997c0,6.612-5.379,11.99-11.99,11.99c-2.209,0-3.996,1.788-3.996,3.997
			c0,2.209,1.787,3.997,3.996,3.997c11.022,0,19.983-8.965,19.982-19.984C291.751,17.773,289.964,15.985,287.755,15.985z"/>
	</g>
</g>
<g>
	<g>
		<path d="M471.6,487.587H287.756c-2.209,0-3.996,1.788-3.996,3.997c0,2.209,1.787,3.996,3.996,3.996h183.843
			c2.209,0,3.999-1.787,3.999-3.996C475.598,489.375,473.809,487.587,471.6,487.587z"/>
	</g>
</g>
<g>
	<g>
		<path d="M271.77,471.601c-2.209,0-3.996,1.788-3.996,3.997c0,2.209,1.787,3.996,3.996,3.996c6.611,0,11.99,5.379,11.99,11.99
			c0,2.209,1.787,3.996,3.996,3.996c2.209,0,3.996-1.787,3.996-3.996C291.752,480.563,282.791,471.601,271.77,471.601z"/>
	</g>
</g>
<g>
	<g>
		<path d="M487.585,471.601c-11.021,0-19.982,8.962-19.982,19.983c0,2.209,1.787,3.996,3.996,3.996c2.209,0,3.998-1.787,3.998-3.996
			c0-6.611,5.377-11.99,11.988-11.99c2.209,0,3.998-1.787,3.998-3.996C491.583,473.389,489.794,471.601,487.585,471.601z"/>
	</g>
</g>
<g>
	<g>
		<path d="M271.769,31.973c-2.209,0-3.996,1.788-3.996,3.997v439.628c0,2.209,1.787,3.996,3.996,3.996
			c2.209,0,3.996-1.788,3.996-3.996V35.97C275.765,33.761,273.978,31.973,271.769,31.973z"/>
	</g>
</g>
<g>
	<g>
		<path d="M487.586,31.973c-2.209,0-3.996,1.788-3.996,3.997v439.628c0,2.209,1.787,3.996,3.996,3.996
			c2.209,0,3.998-1.788,3.998-3.996V35.97C491.584,33.761,489.795,31.973,487.586,31.973z"/>
	</g>
</g>
<g>
	<g>
		<path d="M119.898,111.906c-2.209,0-3.996,1.788-3.996,3.997v63.945c0,2.209,1.787,3.997,3.996,3.997s3.997-1.789,3.997-3.997
			v-63.945C123.895,113.694,122.107,111.906,119.898,111.906z"/>
	</g>
</g>
<g>
	<g>
		<path d="M143.878,111.906c-2.21,0-3.997,1.788-3.997,3.997v63.945c0,2.209,1.788,3.997,3.997,3.997
			c2.209,0,3.996-1.789,3.997-3.997v-63.945C147.875,113.694,146.087,111.906,143.878,111.906z"/>
	</g>
</g>
<g>
	<g>
		<path d="M119.897,175.851c-2.209,0-3.996,1.787-3.996,3.996c0,5.043-3.146,7.861-8.712,12.4
			c-6.799,5.557-15.268,12.47-15.268,27.566c0,2.209,1.788,3.997,3.997,3.997s3.997-1.787,3.997-3.996
			c0-11.304,5.986-16.198,12.333-21.373c5.456-4.457,11.646-9.512,11.646-18.594C123.894,177.638,122.106,175.851,119.897,175.851z"
			/>
	</g>
</g>
<g>
	<g>
		<path d="M156.586,192.246c-5.565-4.539-8.711-7.357-8.711-12.4c0-2.209-1.788-3.996-3.997-3.996c-2.21,0-3.997,1.787-3.997,3.996
			c0,9.082,6.189,14.137,11.646,18.594c6.346,5.176,12.333,10.07,12.333,21.373c0,2.209,1.788,3.997,3.997,3.997
			c2.21,0,3.997-1.787,3.998-3.998C171.855,204.716,163.385,197.804,156.586,192.246z"/>
	</g>
</g>
<g>
	<g>
		<path d="M143.878,111.905h-23.98c-2.209,0-3.996,1.788-3.996,3.997c0,2.209,1.787,3.996,3.996,3.996h23.98
			c2.209,0,3.996-1.787,3.997-3.996C147.875,113.693,146.087,111.905,143.878,111.905z"/>
	</g>
</g>
<g>
	<g>
		<path d="M143.878,151.871h-23.98c-2.209,0-3.996,1.788-3.996,3.997c0,2.209,1.787,3.997,3.996,3.997h23.98
			c2.209,0,3.997-1.788,3.997-3.997C147.875,153.659,146.087,151.871,143.878,151.871z"/>
	</g>
</g>
<g>
	<g>
		<path d="M95.918,215.817c-2.209,0-3.997,1.788-3.997,3.997v119.899c0,2.209,1.788,3.996,3.997,3.996s3.997-1.787,3.997-3.996
			V219.814C99.915,217.605,98.127,215.817,95.918,215.817z"/>
	</g>
</g>
<g>
	<g>
		<path d="M167.857,215.817c-2.209,0-3.997,1.788-3.997,3.997v119.899c0,2.209,1.788,3.996,3.997,3.996
			c2.21,0,3.997-1.787,3.997-3.996V219.814C171.854,217.605,170.066,215.817,167.857,215.817z"/>
	</g>
</g>
<g>
	<g>
		<path d="M103.912,343.709c-2.202,0-3.997-1.795-3.997-3.996c0-2.209-1.788-3.997-3.997-3.997s-3.997,1.788-3.997,3.997
			c0,6.611,5.379,11.989,11.99,11.989c2.209,0,3.997-1.787,3.998-3.996C107.909,345.496,106.121,343.709,103.912,343.709z"/>
	</g>
</g>
<g>
	<g>
		<path d="M167.858,335.716c-2.209,0-3.997,1.788-3.997,3.997c0,2.201-1.796,3.996-3.997,3.996c-2.209,0-3.997,1.787-3.997,3.997
			c0,2.209,1.788,3.996,3.997,3.996c6.612,0,11.99-5.378,11.991-11.989C171.855,337.504,170.067,335.716,167.858,335.716z"/>
	</g>
</g>
<g>
	<g>
		<path d="M159.864,343.709h-55.953c-2.209,0-3.997,1.787-3.997,3.997c0,2.209,1.788,3.996,3.997,3.996h55.953
			c2.209,0,3.997-1.787,3.997-3.996C163.861,345.496,162.073,343.709,159.864,343.709z"/>
	</g>
</g>
<g>
	<g>
		<path d="M167.857,231.804H95.918c-2.209,0-3.997,1.788-3.997,3.997s1.788,3.996,3.997,3.996h71.939
			c2.21,0,3.997-1.787,3.997-3.996S170.066,231.804,167.857,231.804z"/>
	</g>
</g>
<g>
	<g>
		<path d="M167.857,303.743H95.918c-2.209,0-3.997,1.787-3.997,3.996c0,2.209,1.788,3.997,3.997,3.997h71.939
			c2.21,0,3.997-1.788,3.997-3.997C171.854,305.53,170.066,303.743,167.857,303.743z"/>
	</g>
</g>
<g>
	<g>
		<path d="M147.663,258.492c-0.149-0.433-3.771-10.702-15.214-10.702s-15.073,10.264-15.221,10.702
			c-0.71,2.088,0.406,4.359,2.498,5.07c0.43,0.149,0.859,0.215,1.288,0.215c1.663,0,3.216-1.047,3.786-2.709
			c0.015-0.051,1.865-5.285,7.649-5.285c5.559,0,7.463,4.777,7.643,5.285c0.718,2.092,2.989,3.208,5.073,2.498
			C147.249,262.855,148.373,260.584,147.663,258.492z"/>
	</g>
</g>
<g>
	<g>
		<path d="M151.871,271.769h-39.966c-2.209,0-3.997,1.788-3.997,3.997c0,2.209,1.788,3.997,3.997,3.997h39.966
			c2.209,0,3.997-1.788,3.997-3.997C155.868,273.557,154.08,271.769,151.871,271.769z"/>
	</g>
</g>
<g>
	<g>
		<path d="M135.884,287.756h-7.993c-2.209,0-3.996,1.788-3.996,3.997c0,2.209,1.787,3.997,3.996,3.997h7.993
			c2.21,0,3.997-1.788,3.997-3.997C139.881,289.544,138.093,287.756,135.884,287.756z"/>
	</g>
</g>
<g>
	<g>
		<path d="M183.844,391.668H79.932c-2.209,0-3.997,1.788-3.997,3.997c0,2.209,1.788,3.997,3.997,3.997h103.912
			c2.209,0,3.996-1.788,3.996-3.997C187.84,393.456,186.053,391.668,183.844,391.668z"/>
	</g>
</g>
<g>
	<g>
		<path d="M159.864,407.655h-55.953c-2.209,0-3.997,1.787-3.997,3.996c0,2.209,1.788,3.997,3.997,3.997h55.953
			c2.209,0,3.997-1.788,3.997-3.997C163.861,409.442,162.073,407.655,159.864,407.655z"/>
	</g>
</g>
<g>
</g>
<g>
</g>
<g>
</g>
<g>
</g>
<g>
</g>
<g>
</g>
<g>
</g>
<g>
</g>
<g>
</g>
<g>
</g>
<g>
</g>
<g>
</g>
<g>
</g>
<g>
</g>
<g>
</g>
</svg>
