<?xml version="1.0" encoding="UTF-8" standalone="no"?>
<!-- Created with Inkscape (http://www.inkscape.org/) -->

<svg
   xmlns:dc="http://purl.org/dc/elements/1.1/"
   xmlns:cc="http://creativecommons.org/ns#"
   xmlns:rdf="http://www.w3.org/1999/02/22-rdf-syntax-ns#"
   xmlns:svg="http://www.w3.org/2000/svg"
   xmlns="http://www.w3.org/2000/svg"
   xmlns:sodipodi="http://sodipodi.sourceforge.net/DTD/sodipodi-0.dtd"
   xmlns:inkscape="http://www.inkscape.org/namespaces/inkscape"
   width="61.457329mm"
   height="78.805893mm"
   viewBox="0 0 61.457331 78.805893"
   version="1.1"
   id="svg5098"
   inkscape:version="0.92.4 (5da689c313, 2019-01-14)"
   sodipodi:docname="menu-2a.svg">
  <defs
     id="defs5092" />
  <sodipodi:namedview
     id="base"
     pagecolor="#ffffff"
     bordercolor="#666666"
     borderopacity="1.0"
     inkscape:pageopacity="0.0"
     inkscape:pageshadow="2"
     inkscape:zoom="0.70000002"
     inkscape:cx="202.0158"
     inkscape:cy="19.10728"
     inkscape:document-units="mm"
     inkscape:current-layer="layer1"
     showgrid="false"
     fit-margin-top="0"
     fit-margin-left="0"
     fit-margin-right="0"
     fit-margin-bottom="0"
     inkscape:window-width="1366"
     inkscape:window-height="715"
     inkscape:window-x="-8"
     inkscape:window-y="-8"
     inkscape:window-maximized="1" />
  <metadata
     id="metadata5095">
    <rdf:RDF>
      <cc:Work
         rdf:about="">
        <dc:format>image/svg+xml</dc:format>
        <dc:type
           rdf:resource="http://purl.org/dc/dcmitype/StillImage" />
        <dc:title></dc:title>
      </cc:Work>
    </rdf:RDF>
  </metadata>
  <g
     inkscape:label="Camada 1"
     inkscape:groupmode="layer"
     id="layer1"
     transform="translate(-101.74617,348.34917)">
    <rect
       y="-342.56299"
       x="107.86432"
       height="25.775417"
       width="49.593666"
       id="rect4687-6"
       style="fill:none;stroke:#000000;stroke-width:2.33300662;stroke-linejoin:round;stroke-miterlimit:4;stroke-dasharray:none;stroke-opacity:1" />
    <path
       inkscape:connector-curvature="0"
       id="path3784-7"
       d="m 117.9014,-338.52012 c -4.14393,0 -7.51536,3.37142 -7.51536,7.51536 0,4.14393 3.37143,7.51536 7.51536,7.51536 4.14394,0 7.51536,-3.37143 7.51536,-7.51536 0,-4.14394 -3.37142,-7.51536 -7.51536,-7.51536 z m 0,12.5885 c -2.7973,0 -5.07283,-2.27568 -5.07283,-5.07283 0,-2.79716 2.27584,-5.07283 5.07283,-5.07283 2.79716,0 5.07283,2.27583 5.07283,5.07283 0,2.797 -2.27552,5.07283 -5.07283,5.07283 z"
       style="stroke-width:0.15391806" />
    <rect
       id="rect3790-9"
       height="2.4425259"
       width="5.2102804"
       y="-287.93817"
       x="110.80682"
       style="stroke-width:0.15391806" />
    <rect
       style="stroke-width:0.06409761"
       id="rect3804-0"
       height="0.97226369"
       width="13.620845"
       y="-292.54651"
       x="106.60153" />
    <rect
       y="-309.40591"
       x="106.81075"
       height="11.144046"
       width="13.202415"
       id="rect4687-6-3"
       style="fill:none;stroke:#000000;stroke-width:0.79149491;stroke-linejoin:round;stroke-miterlimit:4;stroke-dasharray:none;stroke-opacity:1" />
    <path
       style="stroke-width:0.05176171"
       inkscape:connector-curvature="0"
       id="path3786-6"
       d="m 117.78482,-305.58309 c -0.0634,-0.003 -1.23907,-0.0555 -2.31286,0.43418 -0.47963,-0.43112 -1.11449,-0.67371 -1.79042,-0.67371 -0.55447,0 -1.06839,0.16445 -1.49025,0.4431 -1.17996,-1.06397 -3.07127,-0.98017 -3.15225,-0.97606 -0.21594,0.0111 -0.38849,0.17266 -0.40037,0.37497 -0.005,0.0765 -0.097,1.88736 1.07978,2.9894 0.44021,0.4123 1.03094,0.70387 1.75732,0.86892 0.45711,0.69205 1.27479,1.15438 2.20582,1.15438 0.43903,0 0.86941,-0.10538 1.25158,-0.30319 0.66813,-0.10058 1.53197,-0.34803 2.17228,-0.94751 l 6e-5,-5e-5 c 1.17675,-1.10199 1.08427,-2.91281 1.07972,-2.98935 -0.0119,-0.20247 -0.18448,-0.36391 -0.40041,-0.37508 z m -6.69535,2.18775 c 0,0.11165 0.009,0.22135 0.0244,0.32905 -0.31644,-0.12543 -0.58281,-0.28802 -0.79527,-0.48698 -0.62475,-0.58511 -0.78415,-1.4903 -0.82255,-2.00027 0.53093,0.0342 1.46136,0.17768 2.08959,0.73243 -0.31168,0.40057 -0.49622,0.89326 -0.49622,1.42577 z m 2.42048,1.62449 c -0.88102,-0.0811 -1.57166,-0.77856 -1.57166,-1.62449 0,-0.90012 0.78195,-1.6324 1.74325,-1.6324 0.38677,0 0.75355,0.11842 1.05335,0.3324 -0.0483,0.0396 -0.096,0.0804 -0.14212,0.12363 -0.97018,0.90849 -1.07753,2.29785 -1.08282,2.80086 z m 2.99526,-1.01003 c -0.62486,0.58501 -1.59135,0.73428 -2.13591,0.77029 0.0374,-0.50902 0.19555,-1.41095 0.82361,-1.99906 0.62497,-0.58515 1.5914,-0.73437 2.13592,-0.77044 -0.0374,0.50907 -0.19561,1.4111 -0.82362,1.99921 z" />
    <rect
       style="stroke-width:0.06409761"
       id="rect3804-0-8"
       height="0.97226369"
       width="13.620845"
       y="-290.95859"
       x="106.60153" />
    <rect
       style="stroke-width:0.08778863"
       id="rect3804-0-8-0"
       height="2.1484733"
       width="11.562479"
       y="-296.41486"
       x="107.63071" />
    <rect
       id="rect3790-9-0"
       height="2.4425259"
       width="5.2102804"
       y="-287.93817"
       x="129.93605"
       style="stroke-width:0.15391806" />
    <rect
       style="stroke-width:0.06409761"
       id="rect3804-0-6"
       height="0.97226369"
       width="13.620845"
       y="-292.54651"
       x="125.73076" />
    <rect
       y="-309.40591"
       x="125.93998"
       height="11.144046"
       width="13.202415"
       id="rect4687-6-3-9"
       style="fill:none;stroke:#000000;stroke-width:0.79149491;stroke-linejoin:round;stroke-miterlimit:4;stroke-dasharray:none;stroke-opacity:1" />
    <path
       style="stroke-width:0.05176171"
       inkscape:connector-curvature="0"
       id="path3786-6-7"
       d="m 136.91405,-305.58309 c -0.0634,-0.003 -1.23907,-0.0555 -2.31286,0.43418 -0.47963,-0.43112 -1.11449,-0.67371 -1.79042,-0.67371 -0.55447,0 -1.06839,0.16445 -1.49025,0.4431 -1.17996,-1.06397 -3.07127,-0.98017 -3.15225,-0.97606 -0.21594,0.0111 -0.38849,0.17266 -0.40036,0.37497 -0.005,0.0765 -0.097,1.88736 1.07977,2.9894 0.44022,0.4123 1.03094,0.70387 1.75732,0.86892 0.45711,0.69205 1.2748,1.15438 2.20582,1.15438 0.43904,0 0.86941,-0.10538 1.25158,-0.30319 0.66813,-0.10058 1.53197,-0.34803 2.17229,-0.94751 l 5e-5,-5e-5 c 1.17675,-1.10199 1.08427,-2.91281 1.07972,-2.98935 -0.0119,-0.20247 -0.18448,-0.36391 -0.40041,-0.37508 z m -6.69535,2.18775 c 0,0.11165 0.009,0.22135 0.0245,0.32905 -0.31644,-0.12543 -0.58281,-0.28802 -0.79527,-0.48698 -0.62475,-0.58511 -0.78415,-1.4903 -0.82255,-2.00027 0.53093,0.0342 1.46136,0.17768 2.08959,0.73243 -0.31168,0.40057 -0.49622,0.89326 -0.49622,1.42577 z m 2.42048,1.62449 c -0.88102,-0.0811 -1.57166,-0.77856 -1.57166,-1.62449 0,-0.90012 0.78195,-1.6324 1.74325,-1.6324 0.38677,0 0.75355,0.11842 1.05335,0.3324 -0.0484,0.0396 -0.096,0.0804 -0.14212,0.12363 -0.97018,0.90849 -1.07753,2.29785 -1.08282,2.80086 z m 2.99526,-1.01003 c -0.62486,0.58501 -1.59134,0.73428 -2.13591,0.77029 0.0374,-0.50902 0.19555,-1.41095 0.82362,-1.99906 0.62496,-0.58515 1.59139,-0.73437 2.13591,-0.77044 -0.0374,0.50907 -0.19561,1.4111 -0.82362,1.99921 z" />
    <rect
       style="stroke-width:0.06409761"
       id="rect3804-0-8-3"
       height="0.97226369"
       width="13.620845"
       y="-290.95859"
       x="125.73076" />
    <rect
       style="stroke-width:0.08778863"
       id="rect3804-0-8-0-4"
       height="2.1484733"
       width="11.562479"
       y="-296.41486"
       x="126.75995" />
    <rect
       id="rect3790-9-0-7"
       height="2.4425259"
       width="5.2102804"
       y="-287.93817"
       x="149.06528"
       style="stroke-width:0.15391806" />
    <rect
       style="stroke-width:0.06409761"
       id="rect3804-0-6-3"
       height="0.97226369"
       width="13.620845"
       y="-292.54651"
       x="144.86" />
    <rect
       y="-309.40591"
       x="145.06921"
       height="11.144046"
       width="13.202415"
       id="rect4687-6-3-9-3"
       style="fill:none;stroke:#000000;stroke-width:0.79149491;stroke-linejoin:round;stroke-miterlimit:4;stroke-dasharray:none;stroke-opacity:1" />
    <path
       style="stroke-width:0.05176171"
       inkscape:connector-curvature="0"
       id="path3786-6-7-4"
       d="m 156.04328,-305.58309 c -0.0634,-0.003 -1.23906,-0.0555 -2.31285,0.43418 -0.47963,-0.43112 -1.11449,-0.67371 -1.79043,-0.67371 -0.55446,0 -1.06838,0.16445 -1.49025,0.4431 -1.17996,-1.06397 -3.07127,-0.98017 -3.15225,-0.97606 -0.21593,0.0111 -0.38849,0.17266 -0.40036,0.37497 -0.005,0.0765 -0.097,1.88736 1.07978,2.9894 0.44021,0.4123 1.03094,0.70387 1.75731,0.86892 0.45712,0.69205 1.2748,1.15438 2.20582,1.15438 0.43904,0 0.86941,-0.10538 1.25159,-0.30319 0.66813,-0.10058 1.53197,-0.34803 2.17228,-0.94751 l 6e-5,-5e-5 c 1.17675,-1.10199 1.08427,-2.91281 1.07972,-2.98935 -0.0119,-0.20247 -0.18448,-0.36391 -0.40042,-0.37508 z m -6.69534,2.18775 c 0,0.11165 0.009,0.22135 0.0244,0.32905 -0.31644,-0.12543 -0.58281,-0.28802 -0.79527,-0.48698 -0.62474,-0.58511 -0.78414,-1.4903 -0.82255,-2.00027 0.53093,0.0342 1.46137,0.17768 2.08959,0.73243 -0.31167,0.40057 -0.49621,0.89326 -0.49621,1.42577 z m 2.42047,1.62449 c -0.88101,-0.0811 -1.57166,-0.77856 -1.57166,-1.62449 0,-0.90012 0.78195,-1.6324 1.74325,-1.6324 0.38678,0 0.75355,0.11842 1.05336,0.3324 -0.0484,0.0396 -0.096,0.0804 -0.14212,0.12363 -0.97018,0.90849 -1.07753,2.29785 -1.08283,2.80086 z m 2.99526,-1.01003 c -0.62485,0.58501 -1.59134,0.73428 -2.13591,0.77029 0.0374,-0.50902 0.19556,-1.41095 0.82362,-1.99906 0.62496,-0.58515 1.5914,-0.73437 2.13591,-0.77044 -0.0374,0.50907 -0.19561,1.4111 -0.82362,1.99921 z" />
    <rect
       style="stroke-width:0.06409761"
       id="rect3804-0-8-3-8"
       height="0.97226369"
       width="13.620845"
       y="-290.95859"
       x="144.86" />
    <rect
       style="stroke-width:0.08778863"
       id="rect3804-0-8-0-4-0"
       height="2.1484733"
       width="11.562479"
       y="-296.41486"
       x="145.88918" />
    <rect
       y="-281.17688"
       x="106.91387"
       height="11.144046"
       width="13.202415"
       id="rect4687-6-3-4"
       style="fill:none;stroke:#000000;stroke-width:0.79149485;stroke-linejoin:round;stroke-miterlimit:4;stroke-dasharray:none;stroke-opacity:1" />
    <path
       style="stroke-width:0.05176171"
       inkscape:connector-curvature="0"
       id="path3786-6-8"
       d="m 117.88794,-277.35406 c -0.0634,-0.003 -1.23906,-0.0556 -2.31285,0.43418 -0.47963,-0.43112 -1.11449,-0.67371 -1.79043,-0.67371 -0.55446,0 -1.06838,0.16444 -1.49024,0.44309 -1.17997,-1.06397 -3.07128,-0.98017 -3.15225,-0.97606 -0.21594,0.0111 -0.38849,0.17267 -0.40037,0.37498 -0.005,0.0765 -0.097,1.88736 1.07978,2.9894 0.44021,0.4123 1.03094,0.70387 1.75732,0.86892 0.45711,0.69205 1.27479,1.15438 2.20582,1.15438 0.43903,0 0.8694,-0.10539 1.25158,-0.30319 0.66813,-0.10059 1.53197,-0.34803 2.17228,-0.94752 l 6e-5,-5e-5 c 1.17675,-1.10199 1.08426,-2.91281 1.07971,-2.98934 -0.0119,-0.20247 -0.18448,-0.36391 -0.40041,-0.37508 z m -6.69534,2.18775 c 0,0.11165 0.009,0.22135 0.0244,0.32905 -0.31644,-0.12543 -0.58281,-0.28803 -0.79527,-0.48699 -0.62475,-0.5851 -0.78414,-1.49029 -0.82255,-2.00026 0.53093,0.0342 1.46137,0.17767 2.08959,0.73242 -0.31167,0.40058 -0.49621,0.89327 -0.49621,1.42578 z m 2.42047,1.62448 c -0.88101,-0.081 -1.57166,-0.77855 -1.57166,-1.62448 0,-0.90012 0.78196,-1.6324 1.74325,-1.6324 0.38678,0 0.75355,0.11842 1.05336,0.3324 -0.0483,0.0396 -0.096,0.0804 -0.14212,0.12363 -0.97018,0.90848 -1.07754,2.29784 -1.08283,2.80085 z m 2.99526,-1.01002 c -0.62485,0.58501 -1.59134,0.73427 -2.13591,0.77029 0.0374,-0.50902 0.19555,-1.41095 0.82362,-1.99906 0.62496,-0.58516 1.5914,-0.73437 2.13591,-0.77044 -0.0374,0.50907 -0.1956,1.4111 -0.82362,1.99921 z" />
    <rect
       y="-281.17688"
       x="126.04311"
       height="11.144046"
       width="13.202415"
       id="rect4687-6-3-9-0"
       style="fill:none;stroke:#000000;stroke-width:0.79149485;stroke-linejoin:round;stroke-miterlimit:4;stroke-dasharray:none;stroke-opacity:1" />
    <path
       style="stroke-width:0.05176171"
       inkscape:connector-curvature="0"
       id="path3786-6-7-5"
       d="m 137.01717,-277.35406 c -0.0634,-0.003 -1.23906,-0.0556 -2.31285,0.43418 -0.47963,-0.43112 -1.11449,-0.67371 -1.79043,-0.67371 -0.55446,0 -1.06838,0.16444 -1.49024,0.44309 -1.17997,-1.06397 -3.07128,-0.98017 -3.15225,-0.97606 -0.21594,0.0111 -0.3885,0.17267 -0.40037,0.37498 -0.005,0.0765 -0.097,1.88736 1.07978,2.9894 0.44021,0.4123 1.03094,0.70387 1.75731,0.86892 0.45712,0.69205 1.2748,1.15438 2.20583,1.15438 0.43903,0 0.8694,-0.10539 1.25158,-0.30319 0.66813,-0.10059 1.53197,-0.34803 2.17228,-0.94752 l 6e-5,-5e-5 c 1.17675,-1.10199 1.08427,-2.91281 1.07972,-2.98934 -0.0119,-0.20247 -0.18448,-0.36391 -0.40042,-0.37508 z m -6.69534,2.18775 c 0,0.11165 0.009,0.22135 0.0244,0.32905 -0.31644,-0.12543 -0.58281,-0.28803 -0.79527,-0.48699 -0.62474,-0.5851 -0.78414,-1.49029 -0.82255,-2.00026 0.53093,0.0342 1.46137,0.17767 2.08959,0.73242 -0.31167,0.40058 -0.49621,0.89327 -0.49621,1.42578 z m 2.42047,1.62448 c -0.88101,-0.081 -1.57166,-0.77855 -1.57166,-1.62448 0,-0.90012 0.78196,-1.6324 1.74325,-1.6324 0.38678,0 0.75356,0.11842 1.05336,0.3324 -0.0483,0.0396 -0.096,0.0804 -0.14212,0.12363 -0.97018,0.90848 -1.07753,2.29784 -1.08283,2.80085 z m 2.99527,-1.01002 c -0.62486,0.58501 -1.59135,0.73427 -2.13592,0.77029 0.0374,-0.50902 0.19556,-1.41095 0.82362,-1.99906 0.62497,-0.58516 1.5914,-0.73437 2.13592,-0.77044 -0.0374,0.50907 -0.19561,1.4111 -0.82362,1.99921 z" />
    <rect
       y="-281.17688"
       x="145.17233"
       height="11.144046"
       width="13.202415"
       id="rect4687-6-3-9-3-9"
       style="fill:none;stroke:#000000;stroke-width:0.79149485;stroke-linejoin:round;stroke-miterlimit:4;stroke-dasharray:none;stroke-opacity:1" />
    <path
       style="stroke-width:0.05176171"
       inkscape:connector-curvature="0"
       id="path3786-6-7-4-2"
       d="m 156.14641,-277.35406 c -0.0634,-0.003 -1.23907,-0.0556 -2.31286,0.43418 -0.47963,-0.43112 -1.11449,-0.67371 -1.79042,-0.67371 -0.55447,0 -1.06839,0.16444 -1.49025,0.44309 -1.17996,-1.06397 -3.07127,-0.98017 -3.15225,-0.97606 -0.21593,0.0111 -0.38849,0.17267 -0.40037,0.37498 -0.005,0.0765 -0.097,1.88736 1.07978,2.9894 0.44021,0.4123 1.03094,0.70387 1.75732,0.86892 0.45711,0.69205 1.2748,1.15438 2.20582,1.15438 0.43903,0 0.86941,-0.10539 1.25158,-0.30319 0.66813,-0.10059 1.53197,-0.34803 2.17228,-0.94752 l 6e-5,-5e-5 c 1.17675,-1.10199 1.08427,-2.91281 1.07972,-2.98934 -0.0119,-0.20247 -0.18448,-0.36391 -0.40041,-0.37508 z m -6.69535,2.18775 c 0,0.11165 0.009,0.22135 0.0244,0.32905 -0.31644,-0.12543 -0.58282,-0.28803 -0.79527,-0.48699 -0.62475,-0.5851 -0.78415,-1.49029 -0.82255,-2.00026 0.53093,0.0342 1.46136,0.17767 2.08959,0.73242 -0.31168,0.40058 -0.49622,0.89327 -0.49622,1.42578 z m 2.42047,1.62448 c -0.88101,-0.081 -1.57165,-0.77855 -1.57165,-1.62448 0,-0.90012 0.78195,-1.6324 1.74325,-1.6324 0.38677,0 0.75355,0.11842 1.05335,0.3324 -0.0483,0.0396 -0.096,0.0804 -0.14212,0.12363 -0.97018,0.90848 -1.07753,2.29784 -1.08283,2.80085 z m 2.99527,-1.01002 c -0.62486,0.58501 -1.59135,0.73427 -2.13591,0.77029 0.0374,-0.50902 0.19555,-1.41095 0.82362,-1.99906 0.62496,-0.58516 1.59139,-0.73437 2.1359,-0.77044 -0.0374,0.50907 -0.1956,1.4111 -0.82361,1.99921 z" />
    <path
       inkscape:connector-curvature="0"
       id="path3794-0"
       d="m 161.98231,-348.34917 h -59.01496 c -0.67461,0 -1.22118,0.54672 -1.22118,1.22119 v 76.36352 c 0,0.67447 0.54657,1.22118 1.22118,1.22118 h 59.01496 c 0.67463,0 1.22119,-0.54671 1.22119,-1.22118 v -76.36352 c 0,-0.67447 -0.54672,-1.22119 -1.22119,-1.22119 z m -1.22119,76.36352 h -56.57258 v -73.92099 h 56.57243 v 73.92099 z"
       style="stroke-width:0.15391806" />
    <path
       inkscape:connector-curvature="0"
       id="path3786-66"
       d="m 153.60662,-335.89128 c -0.18239,-0.01 -3.56551,-0.1707 -6.65542,1.33416 -1.38017,-1.32477 -3.20703,-2.0702 -5.15209,-2.0702 -1.59552,0 -3.07436,0.50531 -4.28831,1.36156 -3.39544,-3.26937 -8.83783,-3.01187 -9.07086,-2.99925 -0.62136,0.0342 -1.1179,0.53056 -1.15208,1.15224 -0.0131,0.23518 -0.27905,5.79947 3.10715,9.18583 1.26675,1.26689 2.96662,2.16285 5.05682,2.67001 1.31539,2.12653 3.66833,3.5472 6.34743,3.5472 1.26336,0 2.50179,-0.32385 3.60153,-0.93167 1.92259,-0.30907 4.40837,-1.06942 6.25092,-2.91151 l 1.5e-4,-1.6e-4 c 3.3862,-3.38619 3.12007,-8.95049 3.10699,-9.18567 -0.0343,-0.62214 -0.53086,-1.11822 -1.15223,-1.15254 z m -19.26638,6.72252 c 0,0.34309 0.0252,0.68017 0.0703,1.01109 -0.91058,-0.38541 -1.6771,-0.88503 -2.28845,-1.49639 -1.79777,-1.79792 -2.25644,-4.57937 -2.36696,-6.14641 1.52779,0.10513 4.2052,0.54595 6.01297,2.25059 -0.89689,1.23088 -1.4279,2.74482 -1.4279,4.38112 z m 6.9651,4.99172 c -2.53519,-0.24904 -4.52258,-2.39235 -4.52258,-4.99172 0,-2.7659 2.25013,-5.01603 5.01635,-5.01603 1.11298,0 2.1684,0.36386 3.03111,1.0214 -0.13915,0.12175 -0.27614,0.24704 -0.40896,0.37987 -2.79177,2.79161 -3.10068,7.06084 -3.11592,8.60648 z m 8.6191,-3.1036 c -1.79807,1.79761 -4.57922,2.25628 -6.14625,2.36695 0.10758,-1.56412 0.56272,-4.33556 2.37002,-6.14272 1.79838,-1.79807 4.57938,-2.25659 6.14626,-2.36741 -0.10759,1.56427 -0.56288,4.33603 -2.37003,6.14318 z"
       style="stroke-width:0.15391806" />
  </g>
</svg>
