<?xml version="1.0" encoding="UTF-8" standalone="no"?>
<!-- Created with Inkscape (http://www.inkscape.org/) -->

<svg
   xmlns:dc="http://purl.org/dc/elements/1.1/"
   xmlns:cc="http://creativecommons.org/ns#"
   xmlns:rdf="http://www.w3.org/1999/02/22-rdf-syntax-ns#"
   xmlns:svg="http://www.w3.org/2000/svg"
   xmlns="http://www.w3.org/2000/svg"
   xmlns:sodipodi="http://sodipodi.sourceforge.net/DTD/sodipodi-0.dtd"
   xmlns:inkscape="http://www.inkscape.org/namespaces/inkscape"
   width="512mm"
   height="512mm"
   viewBox="0 0 512.00002 512"
   version="1.1"
   id="svg5098"
   inkscape:version="0.92.4 (5da689c313, 2019-01-14)"
   sodipodi:docname="menu-2.svg">
  <defs
     id="defs5092" />
  <sodipodi:namedview
     id="base"
     pagecolor="#ffffff"
     bordercolor="#666666"
     borderopacity="1.0"
     inkscape:pageopacity="0.0"
     inkscape:pageshadow="2"
     inkscape:zoom="0.12374369"
     inkscape:cx="139.66431"
     inkscape:cy="919.42883"
     inkscape:document-units="mm"
     inkscape:current-layer="layer1"
     showgrid="false"
     fit-margin-top="0"
     fit-margin-left="0"
     fit-margin-right="0"
     fit-margin-bottom="0"
     inkscape:window-width="1366"
     inkscape:window-height="705"
     inkscape:window-x="-8"
     inkscape:window-y="-8"
     inkscape:window-maximized="1" />
  <metadata
     id="metadata5095">
    <rdf:RDF>
      <cc:Work
         rdf:about="">
        <dc:format>image/svg+xml</dc:format>
        <dc:type
           rdf:resource="http://purl.org/dc/dcmitype/StillImage" />
        <dc:title></dc:title>
      </cc:Work>
    </rdf:RDF>
  </metadata>
  <g
     inkscape:label="Camada 1"
     inkscape:groupmode="layer"
     id="layer1"
     transform="translate(-52.25517,348.35013)">
    <rect
       y="-310.75656"
       x="141.49556"
       height="167.46194"
       width="322.20822"
       id="rect4687-6"
       style="fill:none;stroke:#000000;stroke-width:15.15745831;stroke-linejoin:round;stroke-miterlimit:4;stroke-dasharray:none;stroke-opacity:1" />
    <path
       inkscape:connector-curvature="0"
       id="path3784-7"
       d="m 206.70611,-284.49017 c -26.92298,0 -48.827,21.904 -48.827,48.82699 0,26.923 21.90402,48.827 48.827,48.827 26.92301,0 48.827,-21.904 48.827,-48.827 0,-26.92299 -21.90399,-48.82699 -48.827,-48.82699 z m 0,81.78699 c -18.17397,0 -32.95797,-14.785 -32.95797,-32.958 0,-18.173 14.786,-32.95799 32.95797,-32.95799 18.17302,0 32.95801,14.78599 32.95801,32.95799 0,18.172 -14.784,32.958 -32.95801,32.958 z"
       style="stroke-width:1" />
    <rect
       id="rect3790-9"
       height="15.869"
       width="33.851002"
       y="44.138931"
       x="160.61284" />
    <rect
       style="stroke-width:0.41643986"
       id="rect3804-0"
       height="6.3167615"
       width="88.494133"
       y="14.198625"
       x="133.29128" />
    <rect
       y="-95.336288"
       x="134.65054"
       height="72.402458"
       width="85.775604"
       id="rect4687-6-3"
       style="fill:none;stroke:#000000;stroke-width:5.14231348;stroke-linejoin:round;stroke-miterlimit:4;stroke-dasharray:none;stroke-opacity:1" />
    <path
       style="stroke-width:0.33629391"
       inkscape:connector-curvature="0"
       id="path3786-6"
       d="m 205.94868,-70.49951 c -0.4118,-0.0212 -8.05018,-0.3609 -15.02653,2.82088 -3.11616,-2.80103 -7.24081,-4.37711 -11.63234,-4.37711 -3.60233,0 -6.94124,1.06841 -9.68209,2.8788 -7.66616,-6.91258 -19.95393,-6.36813 -20.48005,-6.34144 -1.40292,0.0722 -2.524,1.12178 -2.60115,2.43621 -0.0295,0.49727 -0.63004,12.26211 7.01526,19.42202 2.86006,2.67866 6.698,4.57302 11.41723,5.64533 2.96986,4.49622 8.28231,7.49999 14.33114,7.49999 2.8524,0 5.64851,-0.68471 8.1315,-1.96986 4.3408,-0.65347 9.95315,-2.26113 14.11323,-6.15594 l 3.6e-4,-3.3e-4 c 7.64531,-7.15959 7.04446,-18.92442 7.01491,-19.42169 -0.0775,-1.31541 -1.19857,-2.36428 -2.60147,-2.43686 z m -43.49941,14.21374 c 0,0.7254 0.057,1.4381 0.15882,2.13779 -2.0559,-0.81489 -3.78651,-1.87126 -5.16684,-3.16389 -4.05897,-3.80142 -5.09456,-9.68237 -5.34408,-12.99563 3.44943,0.22227 9.49444,1.15432 13.57599,4.75852 -2.02496,2.60251 -3.2239,5.8035 -3.22389,9.26321 z m 15.72572,10.55421 c -5.72391,-0.52656 -10.21101,-5.05825 -10.21101,-10.55421 0,-5.84808 5.08031,-10.60563 11.32584,-10.60563 2.51287,0 4.89578,0.76933 6.84359,2.15959 -0.31415,0.25742 -0.62343,0.52232 -0.92334,0.80317 -6.30322,5.90244 -7.00068,14.92905 -7.03508,18.19708 z m 19.46011,-6.56209 c -4.05967,3.80077 -10.3389,4.77057 -13.87694,5.00455 0.24291,-3.30708 1.27051,-9.16687 5.35102,-12.98781 4.06036,-3.80175 10.33924,-4.77122 13.87694,-5.00554 -0.24291,3.30741 -1.27086,9.16786 -5.35102,12.9888 z" />
    <rect
       style="stroke-width:0.41643986"
       id="rect3804-0-8"
       height="6.3167615"
       width="88.494133"
       y="24.515396"
       x="133.29128" />
    <rect
       style="stroke-width:0.57035953"
       id="rect3804-0-8-0"
       height="13.958552"
       width="75.121002"
       y="-10.933822"
       x="139.97784" />
    <rect
       id="rect3790-9-0"
       height="15.869"
       width="33.851002"
       y="44.138931"
       x="284.89474" />
    <rect
       style="stroke-width:0.41643986"
       id="rect3804-0-6"
       height="6.3167615"
       width="88.494133"
       y="14.198625"
       x="257.57318" />
    <rect
       y="-95.336288"
       x="258.93246"
       height="72.402458"
       width="85.775604"
       id="rect4687-6-3-9"
       style="fill:none;stroke:#000000;stroke-width:5.14231348;stroke-linejoin:round;stroke-miterlimit:4;stroke-dasharray:none;stroke-opacity:1" />
    <path
       style="stroke-width:0.33629391"
       inkscape:connector-curvature="0"
       id="path3786-6-7"
       d="m 330.23059,-70.49951 c -0.4118,-0.0212 -8.05018,-0.3609 -15.02653,2.82088 -3.11616,-2.80103 -7.24081,-4.37711 -11.63234,-4.37711 -3.60233,0 -6.94124,1.06841 -9.68209,2.8788 -7.66616,-6.91258 -19.95393,-6.36813 -20.48005,-6.34144 -1.40292,0.0722 -2.524,1.12178 -2.60115,2.43621 -0.0295,0.49727 -0.63004,12.26211 7.01526,19.42202 2.86006,2.67866 6.698,4.57302 11.41723,5.64533 2.96986,4.49622 8.28231,7.49999 14.33114,7.49999 2.8524,0 5.64851,-0.68471 8.1315,-1.96986 4.3408,-0.65347 9.95315,-2.26113 14.11323,-6.15594 l 3.6e-4,-3.3e-4 c 7.64531,-7.15959 7.04446,-18.92442 7.01491,-19.42169 -0.0775,-1.31541 -1.19857,-2.36428 -2.60147,-2.43686 z m -43.49941,14.21374 c 0,0.7254 0.057,1.4381 0.15882,2.13779 -2.0559,-0.81489 -3.78651,-1.87126 -5.16684,-3.16389 -4.05897,-3.80142 -5.09456,-9.68237 -5.34408,-12.99563 3.44943,0.22227 9.49444,1.15432 13.57599,4.75852 -2.02496,2.60251 -3.2239,5.8035 -3.22389,9.26321 z m 15.72572,10.55421 c -5.72391,-0.52656 -10.21101,-5.05825 -10.21101,-10.55421 0,-5.84808 5.08031,-10.60563 11.32584,-10.60563 2.51287,0 4.89578,0.76933 6.84359,2.15959 -0.31415,0.25742 -0.62343,0.52232 -0.92334,0.80317 -6.30322,5.90244 -7.00068,14.92905 -7.03508,18.19708 z m 19.46011,-6.56209 c -4.05967,3.80077 -10.3389,4.77057 -13.87694,5.00455 0.24291,-3.30708 1.27051,-9.16687 5.35102,-12.98781 4.06036,-3.80175 10.33924,-4.77122 13.87694,-5.00554 -0.24291,3.30741 -1.27086,9.16786 -5.35102,12.9888 z" />
    <rect
       style="stroke-width:0.41643986"
       id="rect3804-0-8-3"
       height="6.3167615"
       width="88.494133"
       y="24.515396"
       x="257.57318" />
    <rect
       style="stroke-width:0.57035953"
       id="rect3804-0-8-0-4"
       height="13.958552"
       width="75.121002"
       y="-10.933822"
       x="264.25977" />
    <rect
       id="rect3790-9-0-7"
       height="15.869"
       width="33.851002"
       y="44.138931"
       x="409.1767" />
    <rect
       style="stroke-width:0.41643986"
       id="rect3804-0-6-3"
       height="6.3167615"
       width="88.494133"
       y="14.198625"
       x="381.85513" />
    <rect
       y="-95.336288"
       x="383.21439"
       height="72.402458"
       width="85.775604"
       id="rect4687-6-3-9-3"
       style="fill:none;stroke:#000000;stroke-width:5.14231348;stroke-linejoin:round;stroke-miterlimit:4;stroke-dasharray:none;stroke-opacity:1" />
    <path
       style="stroke-width:0.33629391"
       inkscape:connector-curvature="0"
       id="path3786-6-7-4"
       d="m 454.51253,-70.49951 c -0.4118,-0.0212 -8.05018,-0.3609 -15.02653,2.82088 -3.11616,-2.80103 -7.24081,-4.37711 -11.63234,-4.37711 -3.60233,0 -6.94124,1.06841 -9.68209,2.8788 -7.66616,-6.91258 -19.95393,-6.36813 -20.48005,-6.34144 -1.40292,0.0722 -2.524,1.12178 -2.60115,2.43621 -0.0295,0.49727 -0.63004,12.26211 7.01526,19.42202 2.86006,2.67866 6.698,4.57302 11.41723,5.64533 2.96986,4.49622 8.28231,7.49999 14.33114,7.49999 2.8524,0 5.64851,-0.68471 8.1315,-1.96986 4.3408,-0.65347 9.95315,-2.26113 14.11323,-6.15594 l 3.6e-4,-3.3e-4 c 7.64531,-7.15959 7.04446,-18.92442 7.01491,-19.42169 -0.0775,-1.31541 -1.19857,-2.36428 -2.60147,-2.43686 z m -43.49941,14.21374 c 0,0.7254 0.057,1.4381 0.15882,2.13779 -2.0559,-0.81489 -3.78651,-1.87126 -5.16684,-3.16389 -4.05897,-3.80142 -5.09456,-9.68237 -5.34408,-12.99563 3.44943,0.22227 9.49444,1.15432 13.57599,4.75852 -2.02496,2.60251 -3.2239,5.8035 -3.22389,9.26321 z m 15.72572,10.55421 c -5.72391,-0.52656 -10.21101,-5.05825 -10.21101,-10.55421 0,-5.84808 5.08031,-10.60563 11.32584,-10.60563 2.51287,0 4.89578,0.76933 6.84359,2.15959 -0.31415,0.25742 -0.62343,0.52232 -0.92334,0.80317 -6.30322,5.90244 -7.00068,14.92905 -7.03508,18.19708 z m 19.46011,-6.56209 c -4.05967,3.80077 -10.3389,4.77057 -13.87694,5.00455 0.24291,-3.30708 1.27051,-9.16687 5.35102,-12.98781 4.06036,-3.80175 10.33924,-4.77122 13.87694,-5.00554 -0.24291,3.30741 -1.27086,9.16786 -5.35102,12.9888 z" />
    <rect
       style="stroke-width:0.41643986"
       id="rect3804-0-8-3-8"
       height="6.3167615"
       width="88.494133"
       y="24.515396"
       x="381.85513" />
    <rect
       style="stroke-width:0.57035953"
       id="rect3804-0-8-0-4-0"
       height="13.958552"
       width="75.121002"
       y="-10.933822"
       x="388.54169" />
    <rect
       y="88.066666"
       x="135.32054"
       height="72.402458"
       width="85.775604"
       id="rect4687-6-3-4"
       style="fill:none;stroke:#000000;stroke-width:5.142313;stroke-linejoin:round;stroke-miterlimit:4;stroke-dasharray:none;stroke-opacity:1" />
    <path
       style="stroke-width:0.33629391"
       inkscape:connector-curvature="0"
       id="path3786-6-8"
       d="m 206.61869,112.90344 c -0.41182,-0.0227 -8.05017,-0.36095 -15.02654,2.82089 -3.11614,-2.80101 -7.24081,-4.37711 -11.63232,-4.37711 -3.60235,0 -6.94126,1.06839 -9.68209,2.87879 -7.66617,-6.91257 -19.95394,-6.36813 -20.48005,-6.34145 -1.40293,0.0722 -2.52401,1.12181 -2.60115,2.43621 -0.0302,0.49727 -0.63005,12.26211 7.01526,19.42205 2.86004,2.67866 6.698,4.573 11.41723,5.64533 2.96984,4.4962 8.28231,7.49998 14.33114,7.49998 2.85237,0 5.6485,-0.6847 8.1315,-1.96985 4.34079,-0.65348 9.95312,-2.26114 14.11321,-6.15595 l 3.8e-4,-3.4e-4 c 7.6453,-7.15959 7.04443,-18.92443 7.01488,-19.42166 -0.0775,-1.31543 -1.19857,-2.36429 -2.60145,-2.43689 z m -43.49942,14.21374 c 0,0.72541 0.0571,1.43811 0.15874,2.13782 -2.05591,-0.81491 -3.78652,-1.87129 -5.16684,-3.16392 -4.05898,-3.80141 -5.09457,-9.68236 -5.34406,-12.99561 3.44942,0.22224 9.49444,1.15431 13.57599,4.75851 -2.02496,2.6025 -3.2239,5.8035 -3.2239,9.2632 z m 15.72571,10.55422 c -5.72391,-0.52656 -10.211,-5.05826 -10.211,-10.55422 0,-5.84806 5.08033,-10.60562 11.32585,-10.60562 2.51285,0 4.89577,0.76933 6.84359,2.15959 -0.31408,0.25738 -0.62344,0.52233 -0.92334,0.80318 -6.30323,5.90242 -7.00071,14.92903 -7.0351,18.19707 z m 19.46011,-6.56209 c -4.05967,3.80077 -10.3389,4.77056 -13.87692,5.00455 0.24303,-3.30709 1.27049,-9.16687 5.35102,-12.98782 4.06035,-3.80175 10.33924,-4.7712 13.87691,-5.00553 -0.24302,3.30742 -1.27082,9.16785 -5.35101,12.9888 z" />
    <rect
       y="88.066666"
       x="259.60251"
       height="72.402458"
       width="85.775604"
       id="rect4687-6-3-9-0"
       style="fill:none;stroke:#000000;stroke-width:5.142313;stroke-linejoin:round;stroke-miterlimit:4;stroke-dasharray:none;stroke-opacity:1" />
    <path
       style="stroke-width:0.33629391"
       inkscape:connector-curvature="0"
       id="path3786-6-7-5"
       d="m 330.90059,112.90344 c -0.41178,-0.0227 -8.05017,-0.36095 -15.02653,2.82089 -3.11615,-2.80101 -7.24078,-4.37711 -11.63233,-4.37711 -3.60234,0 -6.94125,1.06839 -9.68209,2.87879 -7.66617,-6.91257 -19.95394,-6.36813 -20.48005,-6.34145 -1.40292,0.0722 -2.52401,1.12181 -2.60115,2.43621 -0.0302,0.49727 -0.63005,12.26211 7.01526,19.42205 2.86008,2.67866 6.698,4.573 11.41723,5.64533 2.96988,4.4962 8.28231,7.49998 14.33114,7.49998 2.85241,0 5.6485,-0.6847 8.1315,-1.96985 4.34079,-0.65348 9.95316,-2.26114 14.11325,-6.15595 l 3.4e-4,-3.4e-4 c 7.6453,-7.15959 7.04447,-18.92443 7.01492,-19.42166 -0.0775,-1.31543 -1.19857,-2.36429 -2.60149,-2.43689 z m -43.49941,14.21374 c 0,0.72541 0.0571,1.43811 0.15874,2.13782 -2.05588,-0.81491 -3.78649,-1.87129 -5.16684,-3.16392 -4.05895,-3.80141 -5.09454,-9.68236 -5.34407,-12.99561 3.44943,0.22224 9.49444,1.15431 13.57599,4.75851 -2.02496,2.6025 -3.2239,5.8035 -3.2239,9.2632 z m 15.72574,10.55422 c -5.7239,-0.52656 -10.21104,-5.05826 -10.21104,-10.55422 0,-5.84806 5.08033,-10.60562 11.32585,-10.60562 2.5129,0 4.89581,0.76933 6.84359,2.15959 -0.31408,0.25738 -0.62343,0.52233 -0.92334,0.80318 -6.30319,5.90242 -7.00067,14.92903 -7.03506,18.19707 z m 19.46011,-6.56209 c -4.05967,3.80077 -10.3389,4.77056 -13.87695,5.00455 0.24302,-3.30709 1.27052,-9.16687 5.35101,-12.98782 4.06039,-3.80175 10.33924,-4.7712 13.87696,-5.00553 -0.24303,3.30742 -1.27087,9.16785 -5.35102,12.9888 z" />
    <rect
       y="88.066666"
       x="383.8844"
       height="72.402458"
       width="85.775604"
       id="rect4687-6-3-9-3-9"
       style="fill:none;stroke:#000000;stroke-width:5.142313;stroke-linejoin:round;stroke-miterlimit:4;stroke-dasharray:none;stroke-opacity:1" />
    <path
       style="stroke-width:0.33629391"
       inkscape:connector-curvature="0"
       id="path3786-6-7-4-2"
       d="m 455.18253,112.90344 c -0.41182,-0.0227 -8.0502,-0.36095 -15.02653,2.82089 -3.11618,-2.80101 -7.24082,-4.37711 -11.63233,-4.37711 -3.60234,0 -6.94125,1.06839 -9.68209,2.87879 -7.66617,-6.91257 -19.95394,-6.36813 -20.48005,-6.34145 -1.40292,0.0722 -2.52401,1.12181 -2.60118,2.43621 -0.0302,0.49727 -0.63001,12.26211 7.01529,19.42205 2.86004,2.67866 6.69797,4.573 11.4172,5.64533 2.96987,4.4962 8.28234,7.49998 14.33117,7.49998 2.85237,0 5.64851,-0.6847 8.13147,-1.96985 4.34082,-0.65348 9.95316,-2.26114 14.11324,-6.15595 l 3.8e-4,-3.4e-4 c 7.64531,-7.15959 7.04444,-18.92443 7.01488,-19.42166 -0.0775,-1.31543 -1.19856,-2.36429 -2.60145,-2.43689 z m -43.49941,14.21374 c 0,0.72541 0.0571,1.43811 0.15874,2.13782 -2.05591,-0.81491 -3.78652,-1.87129 -5.16684,-3.16392 -4.05899,-3.80141 -5.09458,-9.68236 -5.34407,-12.99561 3.44943,0.22224 9.49444,1.15431 13.57599,4.75851 -2.02496,2.6025 -3.2239,5.8035 -3.2239,9.2632 z m 15.7257,10.55422 c -5.7239,-0.52656 -10.21099,-5.05826 -10.21099,-10.55422 0,-5.84806 5.08029,-10.60562 11.32584,-10.60562 2.51286,0 4.89578,0.76933 6.84359,2.15959 -0.31408,0.25738 -0.62343,0.52233 -0.92334,0.80318 -6.30323,5.90242 -7.0007,14.92903 -7.0351,18.19707 z m 19.46011,-6.56209 c -4.05966,3.80077 -10.3389,4.77056 -13.87691,5.00455 0.24302,-3.30709 1.27049,-9.16687 5.35102,-12.98782 4.06034,-3.80175 10.33923,-4.7712 13.87691,-5.00553 -0.24302,3.30742 -1.27083,9.16785 -5.35102,12.9888 z" />
    <path
       inkscape:connector-curvature="0"
       id="path3794-0"
       d="M 493.09819,-348.34917 H 109.68015 c -4.38296,0 -7.93398,3.552 -7.93398,7.934 v 496.13102 c 0,4.38198 3.55102,7.93398 7.93398,7.93398 h 383.41804 c 4.383,0 7.93398,-3.552 7.93398,-7.93398 v -496.13102 c 0,-4.382 -3.552,-7.934 -7.93398,-7.934 z m -7.93403,496.13099 H 117.61418 v -480.26199 h 367.549 v 480.26199 z"
       style="stroke-width:1" />
    <path
       inkscape:connector-curvature="0"
       id="path3786-66"
       d="m 438.68164,-267.41072 c -1.18499,-0.065 -23.16502,-1.109 -43.24002,8.668 -8.96697,-8.60701 -20.83597,-13.45001 -33.47297,-13.45001 -10.366,0 -19.97401,3.283 -27.86102,8.84601 -22.06,-21.241 -57.419,-19.568 -58.933,-19.486 -4.03699,0.22201 -7.263,3.44699 -7.48501,7.486 -0.085,1.528 -1.813,37.679 20.18702,59.68 8.23,8.231 19.274,14.052 32.854,17.347 8.546,13.816 23.83298,23.04599 41.23899,23.04599 8.208,0 16.25401,-2.104 23.39902,-6.053 12.491,-2.00799 28.64099,-6.94799 40.61197,-18.91599 l 0.001,-0.001 c 21.99998,-22 20.271,-58.151 20.186,-59.679 -0.22299,-4.042 -3.44901,-7.265 -7.486,-7.488 z m -125.173,43.676 c 0,2.229 0.16403,4.419 0.45698,6.569 -5.91598,-2.504 -10.896,-5.75 -14.86798,-9.722 -11.68002,-11.681 -14.65999,-29.752 -15.37799,-39.933 9.92599,0.68299 27.321,3.547 39.06599,14.62199 -5.82701,7.99701 -9.277,17.83301 -9.277,28.46401 z m 45.25198,32.431 c -16.47099,-1.618 -29.38299,-15.543 -29.38299,-32.431 0,-17.97 14.61899,-32.58901 32.59102,-32.58901 7.23099,0 14.088,2.364 19.693,6.636 -0.90403,0.791 -1.79403,1.605 -2.65701,2.468 -18.13799,18.13701 -20.14499,45.87401 -20.24402,55.91601 z m 55.99801,-20.164 c -11.68199,11.679 -29.751,14.659 -39.93199,15.378 0.69898,-10.162 3.65601,-28.168 15.39798,-39.909 11.684,-11.68201 29.75203,-14.66101 39.932,-15.38101 -0.69899,10.16301 -3.657,28.17101 -15.39799,39.91201 z"
       style="stroke-width:1" />
  </g>
</svg>
