<?xml version="1.0" encoding="UTF-8" standalone="no"?>
<!-- Generator: Adobe Illustrator 19.0.0, SVG Export Plug-In . SVG Version: 6.00 Build 0)  -->

<svg
   xmlns:dc="http://purl.org/dc/elements/1.1/"
   xmlns:cc="http://creativecommons.org/ns#"
   xmlns:rdf="http://www.w3.org/1999/02/22-rdf-syntax-ns#"
   xmlns:svg="http://www.w3.org/2000/svg"
   xmlns="http://www.w3.org/2000/svg"
   xmlns:sodipodi="http://sodipodi.sourceforge.net/DTD/sodipodi-0.dtd"
   xmlns:inkscape="http://www.inkscape.org/namespaces/inkscape"
   version="1.1"
   id="Layer_1"
   x="0px"
   y="0px"
   viewBox="0 0 512 512"
   style="enable-background:new 0 0 512 512;"
   xml:space="preserve"
   sodipodi:docname="menu-1.svg"
   inkscape:version="0.92.4 (5da689c313, 2019-01-14)"><metadata
   id="metadata3849"><rdf:RDF><cc:Work
       rdf:about=""><dc:format>image/svg+xml</dc:format><dc:type
         rdf:resource="http://purl.org/dc/dcmitype/StillImage" /><dc:title></dc:title></cc:Work></rdf:RDF></metadata><defs
   id="defs3847">
	

		
	
			
			
			
			
			
			
			
			
			
			
			
			
			
		</defs><sodipodi:namedview
   pagecolor="#ffffff"
   bordercolor="#666666"
   borderopacity="1"
   objecttolerance="10"
   gridtolerance="10"
   guidetolerance="10"
   inkscape:pageopacity="0"
   inkscape:pageshadow="2"
   inkscape:window-width="1366"
   inkscape:window-height="705"
   id="namedview3845"
   showgrid="false"
   inkscape:zoom="0.5234375"
   inkscape:cx="-109.9701"
   inkscape:cy="60.882278"
   inkscape:window-x="-8"
   inkscape:window-y="-8"
   inkscape:window-maximized="1"
   inkscape:current-layer="Layer_1" />
<rect
   y="39.493908"
   x="88.985435"
   height="167.46194"
   width="322.20822"
   id="rect4687"
   style="fill:none;stroke:#000000;stroke-width:15.15745735;stroke-linejoin:round;stroke-miterlimit:4;stroke-dasharray:none;stroke-opacity:1" /><path
   inkscape:connector-curvature="0"
   id="path3782"
   d="m 319.83409,277.21233 c 4.383,0 7.934,-3.552 7.934,-7.934 v -21.999 c 0,-4.382 -3.551,-7.934 -7.934,-7.934 h -146.024 c -4.383,0 -7.934,3.552 -7.934,7.934 v 21.999 c 0,4.382 3.551,7.934 7.934,7.934 z m -138.09,-21.999 h 130.155 v 6.131 h -130.155 z" /><path
   inkscape:connector-curvature="0"
   id="path3784"
   d="m 160.25533,59.491998 c -26.923,0 -48.827,21.904 -48.827,48.827002 0,26.923 21.904,48.827 48.827,48.827 26.923,0 48.827,-21.904 48.827,-48.827 0,-26.923002 -21.904,-48.827002 -48.827,-48.827002 z m 0,81.787002 c -18.174,0 -32.958,-14.785 -32.958,-32.958 0,-18.173002 14.786,-32.958002 32.958,-32.958002 18.173,0 32.958,14.786 32.958,32.958002 0,18.172 -14.784,32.958 -32.958,32.958 z" /><path
   inkscape:connector-curvature="0"
   id="path3786"
   d="m 389.85133,71.629998 c -1.185,-0.065 -23.165,-1.109 -43.24,8.668 -8.967,-8.607 -20.836,-13.45 -33.473,-13.45 -10.366,0 -19.974,3.283 -27.861,8.846 -22.06,-21.241 -57.419,-19.568 -58.933,-19.486 -4.037,0.222 -7.263,3.447 -7.485,7.486 -0.085,1.528 -1.813,37.679002 20.187,59.680002 8.23,8.231 19.274,14.052 32.854,17.347 8.546,13.816 23.833,23.046 41.239,23.046 8.208,0 16.254,-2.104 23.399,-6.053 12.491,-2.008 28.641,-6.948 40.612,-18.916 l 10e-4,-0.001 c 22,-22 20.271,-58.151002 20.186,-59.679002 -0.223,-4.042 -3.449,-7.265 -7.486,-7.488 z M 264.67833,115.306 c 0,2.229 0.164,4.419 0.457,6.569 -5.916,-2.504 -10.896,-5.75 -14.868,-9.722 -11.68,-11.681 -14.66,-29.752002 -15.378,-39.933002 9.926,0.683 27.321,3.547 39.066,14.622 -5.827,7.997002 -9.277,17.833002 -9.277,28.464002 z m 45.252,32.431 c -16.471,-1.618 -29.383,-15.543 -29.383,-32.431 0,-17.97 14.619,-32.589002 32.591,-32.589002 7.231,0 14.088,2.364 19.693,6.636 -0.904,0.791 -1.794,1.605 -2.657,2.468 -18.138,18.137002 -20.145,45.874002 -20.244,55.916002 z m 55.998,-20.164 c -11.682,11.679 -29.751,14.659 -39.932,15.378 0.699,-10.162 3.656,-28.168 15.398,-39.909 11.684,-11.682002 29.752,-14.661002 39.932,-15.381002 -0.699,10.163002 -3.657,28.171002 -15.398,39.912002 z" /><rect
   id="rect3788"
   height="15.869"
   width="33.851002"
   y="331.42502"
   x="345.05133" /><rect
   id="rect3790"
   height="15.869"
   width="33.851002"
   y="299.55902"
   x="345.05133" /><path
   inkscape:connector-curvature="0"
   id="path3794"
   d="M 440.84333,9.981e-4 H 57.425325 c -4.383,0 -7.934,3.552 -7.934,7.9339999 V 504.066 c 0,4.382 3.551,7.934 7.934,7.934 H 440.84333 c 4.383,0 7.934,-3.552 7.934,-7.934 V 7.934998 c 0,-4.3819999 -3.552,-7.9339999 -7.934,-7.9339999 z M 432.90933,496.132 H 65.359325 V 15.869998 H 432.90833 V 496.132 Z" /><rect
   id="rect3796"
   height="15.869"
   width="33.851002"
   y="363.29199"
   x="345.05133" /><rect
   id="rect3798"
   height="15.869"
   width="33.851002"
   y="395.16"
   x="345.05133" /><rect
   id="rect3800"
   height="15.869"
   width="203.121"
   y="331.42502"
   x="119.36232" /><rect
   id="rect3802"
   height="15.869"
   width="203.121"
   y="363.29199"
   x="119.36232" /><rect
   id="rect3804"
   height="15.869"
   width="203.121"
   y="299.55902"
   x="119.36232" /><rect
   id="rect3806"
   height="15.869"
   width="203.121"
   y="395.16"
   x="119.36232" />
<g
   id="g3814">
</g>
<g
   id="g3816">
</g>
<g
   id="g3818">
</g>
<g
   id="g3820">
</g>
<g
   id="g3822">
</g>
<g
   id="g3824">
</g>
<g
   id="g3826">
</g>
<g
   id="g3828">
</g>
<g
   id="g3830">
</g>
<g
   id="g3832">
</g>
<g
   id="g3834">
</g>
<g
   id="g3836">
</g>
<g
   id="g3838">
</g>
<g
   id="g3840">
</g>
<g
   id="g3842">
</g>
</svg>